<svg width="17" height="17" viewBox="0 0 17 17" fill="none" xmlns="http://www.w3.org/2000/svg">
<path d="M10.9793 2.83333H12.7502C13.1259 2.83333 13.4862 2.98259 13.7519 3.24827C14.0176 3.51394 14.1668 3.87428 14.1668 4.25V13.4583C14.1668 13.8341 14.0176 14.1944 13.7519 14.4601C13.4862 14.7257 13.1259 14.875 12.7502 14.875H4.25016C3.87444 14.875 3.5141 14.7257 3.24843 14.4601C2.98275 14.1944 2.8335 13.8341 2.8335 13.4583V4.25C2.8335 3.87428 2.98275 3.51394 3.24843 3.24827C3.5141 2.98259 3.87444 2.83333 4.25016 2.83333H6.021" stroke="#2EAAED" stroke-width="1.41667" stroke-linecap="round" stroke-linejoin="round"/>
<path d="M6.10687 2.48979C6.18348 2.18331 6.36033 1.91123 6.60931 1.71679C6.85829 1.52235 7.16512 1.41671 7.48103 1.41667H9.51891C9.83482 1.41671 10.1416 1.52235 10.3906 1.71679C10.6396 1.91123 10.8165 2.18331 10.8931 2.48979L11.3337 4.25H5.66699L6.10687 2.48979Z" stroke="#2EAAED" stroke-width="1.41667" stroke-linecap="round" stroke-linejoin="round"/>
<path d="M6.375 8.5H10.625M6.375 11.3333H10.625" stroke="#2EAAED" stroke-width="1.41667" stroke-linecap="round"/>
</svg>
