<svg width="17" height="17" viewBox="0 0 17 17" fill="none" xmlns="http://www.w3.org/2000/svg">
<path d="M10.7978 15.1342C10.6555 15.2767 10.4865 15.3896 10.3005 15.4667C10.1145 15.5438 9.91508 15.5834 9.71373 15.5834C9.51238 15.5834 9.313 15.5438 9.12699 15.4667C8.94098 15.3896 8.77197 15.2767 8.62962 15.1342L2.57408 9.07871C2.28661 8.7913 2.12507 8.40146 2.125 7.99496V3.65713C2.125 2.81208 2.81208 2.125 3.65783 2.125H7.99496C8.40083 2.125 8.79113 2.2865 9.07871 2.57408L15.1342 8.62962C15.2767 8.77197 15.3896 8.94098 15.4667 9.12699C15.5438 9.313 15.5834 9.51238 15.5834 9.71373C15.5834 9.91508 15.5438 10.1145 15.4667 10.3005C15.3896 10.4865 15.2767 10.6555 15.1342 10.7978L10.7978 15.1342Z" stroke="#2EAAED" stroke-width="1.41667" stroke-linecap="round" stroke-linejoin="round"/>
<path d="M4.604 4.60417L4.95817 4.95834" stroke="#2EAAED" stroke-width="1.41667" stroke-linecap="round"/>
</svg>
