<svg width="17" height="17" viewBox="0 0 17 17" fill="none" xmlns="http://www.w3.org/2000/svg">
<path d="M9.91699 13.4583C12.5881 13.4583 13.924 13.4583 14.7535 12.6282C15.5837 11.7987 15.5837 10.4628 15.5837 7.79167C15.5837 5.12054 15.5837 3.78462 14.7535 2.95517C13.924 2.125 12.5881 2.125 9.91699 2.125H7.08366C4.41253 2.125 3.07662 2.125 2.24716 2.95517C1.41699 3.78462 1.41699 5.12054 1.41699 7.79167C1.41699 10.4628 1.41699 11.7987 2.24716 12.6282C2.7097 13.0914 3.32949 13.2961 4.25033 13.3861" stroke="#2EAAED" stroke-width="1.41667" stroke-linecap="round" stroke-linejoin="round"/>
<path d="M9.91672 13.4583C9.04122 13.4583 8.07647 13.8125 7.19601 14.2694C5.78076 15.0039 5.07313 15.3715 4.72463 15.1371C4.37613 14.9033 4.44201 14.1773 4.57447 12.7259L4.60422 12.3958" stroke="#2EAAED" stroke-width="1.41667" stroke-linecap="round"/>
</svg>
