<svg width="19" height="19" viewBox="0 0 19 19" fill="none" xmlns="http://www.w3.org/2000/svg">
<path d="M2.75 4.25H5.75M16.25 4.25H8.75M2.75 9.5H11.75M16.25 9.5H14.75M2.75 14.75H4.25M16.25 14.75H7.25" stroke="white" stroke-width="1.5" stroke-linecap="round"/>
<path d="M7.25 5.75C8.07843 5.75 8.75 5.07843 8.75 4.25C8.75 3.42157 8.07843 2.75 7.25 2.75C6.42157 2.75 5.75 3.42157 5.75 4.25C5.75 5.07843 6.42157 5.75 7.25 5.75Z" stroke="white" stroke-width="1.5" stroke-linecap="round"/>
<path d="M13.25 11C14.0784 11 14.75 10.3284 14.75 9.5C14.75 8.67157 14.0784 8 13.25 8C12.4216 8 11.75 8.67157 11.75 9.5C11.75 10.3284 12.4216 11 13.25 11Z" stroke="white" stroke-width="1.5" stroke-linecap="round"/>
<path d="M5.75 16.25C6.57843 16.25 7.25 15.5784 7.25 14.75C7.25 13.9216 6.57843 13.25 5.75 13.25C4.92157 13.25 4.25 13.9216 4.25 14.75C4.25 15.5784 4.92157 16.25 5.75 16.25Z" stroke="white" stroke-width="1.5" stroke-linecap="round"/>
</svg>
