<svg width="34" height="34" viewBox="0 0 34 34" fill="none" xmlns="http://www.w3.org/2000/svg">
<path d="M17.0002 17V29.75M17.0002 17L13.4585 19.8333M17.0002 17L20.5419 19.8333M7.13171 12.9157C5.79184 13.2529 4.6212 14.0677 3.83974 15.2071C3.05827 16.3465 2.71976 17.7321 2.88781 19.1034C3.05586 20.4748 3.71891 21.7376 4.75237 22.6546C5.78583 23.5716 7.11858 24.0797 8.50021 24.0833H9.91688" stroke="#2EAAED" stroke-width="2" stroke-linecap="round" stroke-linejoin="round"/>
<path d="M22.4263 10.1122C21.9421 8.19481 20.7469 6.5333 19.0831 5.46445C17.4193 4.3956 15.4113 3.99938 13.4662 4.35611C11.5211 4.71285 9.78441 5.79584 8.60818 7.38556C7.43196 8.97528 6.90421 10.9528 7.13193 12.9172C7.13193 12.9172 7.34868 14.1667 7.7921 14.875" stroke="#2EAAED" stroke-width="2" stroke-linecap="round" stroke-linejoin="round"/>
<path d="M24.0827 24.0833C25.0829 24.0827 26.0716 23.8701 26.9838 23.4598C27.896 23.0495 28.7109 22.4506 29.375 21.7026C30.039 20.9546 30.5371 20.0745 30.8365 19.1201C31.1358 18.1657 31.2297 17.1588 31.1119 16.1655C30.994 15.1723 30.6672 14.2152 30.1528 13.3574C29.6384 12.4996 28.9482 11.7604 28.1276 11.1885C27.307 10.6167 26.3745 10.2251 25.3917 10.0396C24.4088 9.85406 23.3978 9.8788 22.4252 10.1122L20.541 10.625" stroke="#2EAAED" stroke-width="2" stroke-linecap="round" stroke-linejoin="round"/>
</svg>
