<svg width="17" height="17" viewBox="0 0 17 17" fill="none" xmlns="http://www.w3.org/2000/svg">
<path d="M13.4583 7.08333H3.54167C2.75926 7.08333 2.125 7.7176 2.125 8.5V14.1667C2.125 14.9491 2.75926 15.5833 3.54167 15.5833H13.4583C14.2407 15.5833 14.875 14.9491 14.875 14.1667V8.5C14.875 7.7176 14.2407 7.08333 13.4583 7.08333Z" stroke="#2EAAED" stroke-width="1.41667" stroke-linecap="round" stroke-linejoin="round"/>
<path d="M4.25 4.25C4.25 3.68641 4.47388 3.14591 4.8724 2.7474C5.27091 2.34888 5.81141 2.125 6.375 2.125H10.625C11.1886 2.125 11.7291 2.34888 12.1276 2.7474C12.5261 3.14591 12.75 3.68641 12.75 4.25V7.08333H4.25V4.25Z" stroke="#2EAAED" stroke-width="1.41667" stroke-linecap="round" stroke-linejoin="round"/>
</svg>
