<svg width="17" height="17" viewBox="0 0 17 17" fill="none" xmlns="http://www.w3.org/2000/svg">
<path d="M8.49967 8.5C10.4557 8.5 12.0413 6.91434 12.0413 4.95833C12.0413 3.00233 10.4557 1.41667 8.49967 1.41667C6.54367 1.41667 4.95801 3.00233 4.95801 4.95833C4.95801 6.91434 6.54367 8.5 8.49967 8.5Z" stroke="#2EAAED" stroke-width="1.41667"/>
<path d="M12.0415 9.91667H12.2909C12.8087 9.91681 13.3087 10.1061 13.6969 10.4488C14.085 10.7916 14.3347 11.2643 14.3989 11.7782L14.6758 13.991C14.7007 14.1903 14.683 14.3927 14.6237 14.5847C14.5644 14.7766 14.465 14.9538 14.332 15.1044C14.1991 15.2549 14.0356 15.3755 13.8524 15.4581C13.6693 15.5407 13.4707 15.5834 13.2698 15.5833H3.72996C3.52907 15.5834 3.33046 15.5407 3.14732 15.4581C2.96418 15.3755 2.8007 15.2549 2.66773 15.1044C2.53476 14.9538 2.43533 14.7766 2.37606 14.5847C2.31678 14.3927 2.29901 14.1903 2.32392 13.991L2.60017 11.7782C2.66442 11.2641 2.91426 10.7912 3.30272 10.4484C3.69118 10.1056 4.1915 9.91647 4.70959 9.91667H4.95821" stroke="#2EAAED" stroke-width="1.41667" stroke-linecap="round" stroke-linejoin="round"/>
</svg>
