<svg width="17" height="17" viewBox="0 0 17 17" fill="none" xmlns="http://www.w3.org/2000/svg">
<path d="M14.167 2.83333H2.83366C2.05126 2.83333 1.41699 3.46759 1.41699 4.24999V12.75C1.41699 13.5324 2.05126 14.1667 2.83366 14.1667H14.167C14.9494 14.1667 15.5837 13.5324 15.5837 12.75V4.24999C15.5837 3.46759 14.9494 2.83333 14.167 2.83333Z" stroke="#2EAAED" stroke-width="1.41667" stroke-linecap="round" stroke-linejoin="round"/>
<path d="M8.50065 7.09467C8.31591 6.87071 8.08415 6.69015 7.82182 6.56578C7.55949 6.44141 7.27301 6.37628 6.98269 6.375C5.86565 6.375 4.95898 7.32629 4.95898 8.5C4.95898 9.67371 5.86565 10.625 6.98269 10.625C7.58761 10.625 8.13019 10.3466 8.50065 9.90533M12.0423 8.5C12.0423 9.67371 11.1357 10.625 10.0186 10.625C8.90086 10.625 7.9949 9.67371 7.9949 8.5C7.9949 7.32629 8.90086 6.375 10.0186 6.375C11.1357 6.375 12.0423 7.32629 12.0423 8.5Z" stroke="#2EAAED" stroke-width="1.41667" stroke-linecap="round" stroke-linejoin="round"/>
</svg>
