<svg width="17" height="17" viewBox="0 0 17 17" fill="none" xmlns="http://www.w3.org/2000/svg">
<path d="M9.9165 13.4583C12.5876 13.4583 13.9235 13.4583 14.753 12.6282C15.5832 11.7987 15.5832 10.4628 15.5832 7.79167C15.5832 5.12054 15.5832 3.78462 14.753 2.95517C13.9235 2.125 12.5876 2.125 9.9165 2.125H7.08317C4.41205 2.125 3.07613 2.125 2.24667 2.95517C1.4165 3.78462 1.4165 5.12054 1.4165 7.79167C1.4165 10.4628 1.4165 11.7987 2.24667 12.6282C2.70921 13.0914 3.329 13.2961 4.24984 13.3861" stroke="#2EAAED" stroke-width="1.41667" stroke-linecap="round" stroke-linejoin="round"/>
<path d="M8.50005 7.79167V7.79876M5.66672 7.79167V7.79876M11.3334 7.79167V7.79876M9.91672 13.4583C9.04122 13.4583 8.07647 13.8125 7.19601 14.2694C5.78076 15.0039 5.07313 15.3715 4.72463 15.1371C4.37613 14.9033 4.44201 14.1773 4.57447 12.7259L4.60422 12.3958" stroke="#2EAAED" stroke-width="1.41667" stroke-linecap="round"/>
</svg>
