<svg width="269" height="262" viewBox="0 0 269 262" fill="none" xmlns="http://www.w3.org/2000/svg">
<g clip-path="url(#clip0_69_1927)">
<path d="M170.772 58.9229H98.2882C96.6364 58.9249 95.0529 59.5806 93.8849 60.746C92.7169 61.9114 92.0599 63.4914 92.0579 65.1396V225.881L91.2271 226.134L73.4457 231.567C72.603 231.824 71.6928 231.736 70.9148 231.324C70.1369 230.911 69.5548 230.207 69.2964 229.367L16.4048 56.9792C16.1474 56.1383 16.2351 55.2299 16.6487 54.4535C17.0622 53.6772 17.7678 53.0964 18.6103 52.8389L46.0115 44.4672L125.448 20.2057L152.849 11.8339C153.266 11.7059 153.705 11.6611 154.139 11.7022C154.573 11.7434 154.995 11.8695 155.381 12.0736C155.766 12.2776 156.107 12.5554 156.385 12.8912C156.663 13.227 156.871 13.6142 156.999 14.0305L170.519 58.0941L170.772 58.9229Z" fill="#F2F2F2"/>
<path d="M186.589 58.0944L170.294 4.98769C170.023 4.10283 169.58 3.27994 168.99 2.56606C168.4 1.85217 167.675 1.26127 166.856 0.827124C166.037 0.392977 165.14 0.124088 164.217 0.0358334C163.294 -0.0524217 162.363 0.0416861 161.476 0.31277L122.952 12.0788L43.5191 36.3444L4.9948 48.1146C3.20517 48.663 1.70668 49.8974 0.828257 51.547C-0.0501644 53.1966 -0.236753 55.1265 0.309454 56.9133L56.0005 238.41C56.4442 239.853 57.3395 241.115 58.555 242.012C59.7706 242.91 61.2423 243.395 62.7543 243.396C63.4541 243.396 64.15 243.292 64.8185 243.085L91.2269 235.02L92.0576 234.763V233.897L91.2269 234.15L64.5735 242.294C62.9938 242.774 61.2877 242.61 59.8292 241.837C58.3708 241.064 57.2792 239.745 56.7939 238.17L1.10711 56.6687C0.866655 55.8883 0.78285 55.0682 0.860491 54.2554C0.938132 53.4426 1.17569 52.6531 1.55957 51.932C1.94345 51.211 2.46611 50.5726 3.09762 50.0534C3.72913 49.5341 4.45708 49.1443 5.23979 48.9062L43.7641 37.136L123.197 12.8745L161.721 1.10436C162.315 0.923583 162.932 0.831407 163.553 0.83083C164.885 0.833814 166.181 1.26233 167.252 2.05361C168.322 2.84489 169.11 3.95736 169.501 5.22807L185.721 58.0944L185.978 58.9233H186.842L186.589 58.0944Z" fill="#3F3D56"/>
<path d="M50.9558 52.9744C50.1553 52.9739 49.376 52.7173 48.7322 52.2424C48.0885 51.7676 47.6143 51.0993 47.379 50.3358L42.0291 32.8994C41.8853 32.4311 41.8354 31.939 41.8823 31.4514C41.9291 30.9638 42.0718 30.4902 42.3021 30.0576C42.5324 29.625 42.8459 29.2419 43.2246 28.9302C43.6033 28.6185 44.0398 28.3843 44.5093 28.241L117.587 5.91754C118.535 5.62889 119.559 5.72734 120.434 6.19127C121.309 6.65519 121.965 7.44669 122.256 8.39206L127.606 25.8286C127.895 26.7745 127.796 27.7962 127.331 28.6696C126.866 29.543 126.073 30.1966 125.126 30.4873L52.048 52.8107C51.6941 52.9191 51.326 52.9743 50.9558 52.9744Z" fill="#2EAAED"/>
<path d="M78.981 18.6311C83.5689 18.6311 87.2881 14.9201 87.2881 10.3423C87.2881 5.76447 83.5689 2.05342 78.981 2.05342C74.3931 2.05342 70.6738 5.76447 70.6738 10.3423C70.6738 14.9201 74.3931 18.6311 78.981 18.6311Z" fill="#2EAAED"/>
<path d="M78.981 15.591C81.8862 15.591 84.2414 13.2411 84.2414 10.3423C84.2414 7.44347 81.8862 5.09352 78.981 5.09352C76.0758 5.09352 73.7207 7.44347 73.7207 10.3423C73.7207 13.2411 76.0758 15.591 78.981 15.591Z" fill="white"/>
<path d="M250.31 241.278H109.919C108.983 241.277 108.086 240.905 107.424 240.245C106.762 239.584 106.39 238.689 106.389 237.755V69.9057C106.39 68.9717 106.762 68.0763 107.424 67.4159C108.086 66.7554 108.983 66.384 109.919 66.3829H250.31C251.246 66.384 252.143 66.7555 252.805 67.4159C253.467 68.0763 253.839 68.9717 253.84 69.9057V237.755C253.839 238.689 253.467 239.584 252.805 240.245C252.143 240.905 251.246 241.277 250.31 241.278Z" fill="#E6E6E6"/>
<path d="M185.72 58.0941H98.2876C96.4157 58.0967 94.6213 58.8398 93.2976 60.1606C91.974 61.4813 91.2292 63.2718 91.2266 65.1396V234.149L92.0573 233.897V65.1396C92.0593 63.4914 92.7163 61.9114 93.8843 60.746C95.0523 59.5806 96.6359 58.9249 98.2876 58.9229H185.978L185.72 58.0941ZM261.938 58.0941H98.2876C96.4157 58.0967 94.6213 58.8398 93.2976 60.1606C91.974 61.4813 91.2292 63.2718 91.2266 65.1396V254.954C91.2292 256.822 91.974 258.613 93.2976 259.934C94.6213 261.254 96.4157 261.997 98.2876 262H261.938C263.81 261.997 265.605 261.254 266.928 259.934C268.252 258.613 268.997 256.822 268.999 254.954V65.1396C268.997 63.2718 268.252 61.4813 266.928 60.1606C265.605 58.8398 263.81 58.0967 261.938 58.0941ZM268.168 254.954C268.166 256.603 267.509 258.183 266.341 259.348C265.173 260.514 263.59 261.169 261.938 261.171H98.2876C96.6359 261.169 95.0523 260.514 93.8843 259.348C92.7163 258.183 92.0593 256.603 92.0573 254.954V65.1396C92.0593 63.4914 92.7163 61.9114 93.8843 60.746C95.0523 59.5806 96.6359 58.9249 98.2876 58.9229H261.938C263.59 58.9249 265.173 59.5806 266.341 60.746C267.509 61.9114 268.166 63.4914 268.168 65.1396V254.954Z" fill="#3F3D56"/>
<path d="M218.326 76.3295H141.9C140.909 76.3284 139.959 75.9351 139.258 75.2358C138.557 74.5366 138.163 73.5885 138.162 72.5996V54.3641C138.163 53.3752 138.557 52.4271 139.258 51.7278C139.959 51.0285 140.909 50.6352 141.9 50.6341H218.326C219.317 50.6352 220.267 51.0285 220.968 51.7278C221.669 52.4271 222.063 53.3752 222.064 54.3641V72.5996C222.063 73.5885 221.669 74.5366 220.968 75.2358C220.267 75.9351 219.317 76.3284 218.326 76.3295Z" fill="#2EAAED"/>
<path d="M180.114 51.8774C184.702 51.8774 188.421 48.1664 188.421 43.5886C188.421 39.0107 184.702 35.2997 180.114 35.2997C175.526 35.2997 171.807 39.0107 171.807 43.5886C171.807 48.1664 175.526 51.8774 180.114 51.8774Z" fill="#2EAAED"/>
<path d="M180.115 48.6372C182.909 48.6372 185.174 46.3769 185.174 43.5885C185.174 40.8002 182.909 38.5399 180.115 38.5399C177.32 38.5399 175.055 40.8002 175.055 43.5885C175.055 46.3769 177.32 48.6372 180.115 48.6372Z" fill="white"/>
</g>
<defs>
<clipPath id="clip0_69_1927">
<rect width="269" height="262" fill="white"/>
</clipPath>
</defs>
</svg>
