<svg width="17" height="17" viewBox="0 0 17 17" fill="none" xmlns="http://www.w3.org/2000/svg">
<path d="M5.92758 3.39292L3.98958 2.74621C3.77661 2.67527 3.54983 2.65596 3.32793 2.68987C3.10603 2.72378 2.89537 2.80993 2.71329 2.94122C2.53122 3.07252 2.38296 3.2452 2.28072 3.44504C2.17848 3.64488 2.12519 3.86615 2.12524 4.09062V12.4369C2.12517 12.7344 2.21873 13.0243 2.39265 13.2656C2.56657 13.5069 2.81204 13.6873 3.09424 13.7813L5.92758 14.7255C6.21817 14.8223 6.53231 14.8223 6.82291 14.7255L10.1776 13.6078C10.4682 13.511 10.7823 13.511 11.0729 13.6078L13.0109 14.2538C13.2239 14.3247 13.4508 14.344 13.6727 14.3101C13.8947 14.2762 14.1054 14.1899 14.2875 14.0586C14.4696 13.9272 14.6178 13.7544 14.72 13.5545C14.8222 13.3546 14.8754 13.1332 14.8752 12.9087V4.56308C14.8754 4.26572 14.7819 3.97586 14.6081 3.73457C14.4343 3.49327 14.189 3.31278 13.907 3.21867L11.0736 2.27446C10.7828 2.17751 10.4684 2.17751 10.1776 2.27446L6.8222 3.39221C6.5316 3.489 6.21747 3.489 5.92687 3.39221L5.92758 3.39292Z" stroke="#2EAAED" stroke-width="1.41667" stroke-linecap="round" stroke-linejoin="round"/>
<path d="M6.37524 3.54167V14.875M10.6252 2.125V13.4583" stroke="#2EAAED" stroke-width="1.41667" stroke-linejoin="round"/>
</svg>
