<svg width="27" height="27" viewBox="0 0 27 27" fill="none" xmlns="http://www.w3.org/2000/svg">
<rect x="0.5" y="0.5" width="26" height="26" rx="5.5" fill="white"/>
<rect x="0.5" y="0.5" width="26" height="26" rx="5.5" fill="#FFC71F"/>
<path d="M7.84754 13.0578C7.8261 12.9719 7.82452 12.8821 7.84293 12.7955C7.86134 12.7088 7.89926 12.6274 7.9538 12.5576C8.00834 12.4878 8.07807 12.4313 8.1577 12.3924C8.23733 12.3536 8.32477 12.3334 8.41337 12.3333H18.5867C18.6753 12.3334 18.7627 12.3536 18.8424 12.3924C18.922 12.4313 18.9917 12.4878 19.0463 12.5576C19.1008 12.6274 19.1387 12.7088 19.1571 12.7955C19.1756 12.8821 19.174 12.9719 19.1525 13.0578L18.0961 17.2829C18.033 17.5353 17.8874 17.7594 17.6823 17.9195C17.4773 18.0796 17.2246 18.1666 16.9645 18.1667H10.0356C9.77546 18.1666 9.52278 18.0796 9.31773 17.9195C9.11269 17.7594 8.96704 17.5353 8.90396 17.2829L7.84754 13.0584V13.0578Z" stroke="black" stroke-width="1.1" stroke-linejoin="round"/>
<path d="M11.75 14.6667V15.8333M15.25 14.6667V15.8333M10 12.3333L12.3333 8.83333M17 12.3333L14.6667 8.83333" stroke="black" stroke-width="1.1" stroke-linecap="round"/>
<rect x="0.5" y="0.5" width="26" height="26" rx="5.5" stroke="black"/>
</svg>
