<svg width="17" height="17" viewBox="0 0 17 17" fill="none" xmlns="http://www.w3.org/2000/svg">
<path d="M2.125 3.54167H4.95833M14.875 3.54167H7.79167M2.125 8.5H10.625M14.875 8.5H13.4583M2.125 13.4583H3.54167M14.875 13.4583H6.375" stroke="#040415" stroke-width="1.41667" stroke-linecap="round"/>
<path d="M6.37498 4.95833C7.15738 4.95833 7.79165 4.32407 7.79165 3.54167C7.79165 2.75926 7.15738 2.125 6.37498 2.125C5.59258 2.125 4.95831 2.75926 4.95831 3.54167C4.95831 4.32407 5.59258 4.95833 6.37498 4.95833Z" stroke="#040415" stroke-width="1.41667" stroke-linecap="round"/>
<path d="M12.0417 9.91667C12.8241 9.91667 13.4583 9.2824 13.4583 8.5C13.4583 7.7176 12.8241 7.08333 12.0417 7.08333C11.2593 7.08333 10.625 7.7176 10.625 8.5C10.625 9.2824 11.2593 9.91667 12.0417 9.91667Z" stroke="#040415" stroke-width="1.41667" stroke-linecap="round"/>
<path d="M4.95835 14.875C5.74076 14.875 6.37502 14.2407 6.37502 13.4583C6.37502 12.6759 5.74076 12.0417 4.95835 12.0417C4.17595 12.0417 3.54169 12.6759 3.54169 13.4583C3.54169 14.2407 4.17595 14.875 4.95835 14.875Z" stroke="#040415" stroke-width="1.41667" stroke-linecap="round"/>
</svg>
