<svg width="17" height="17" viewBox="0 0 17 17" fill="none" xmlns="http://www.w3.org/2000/svg">
<path d="M9.91669 13.4583C12.5878 13.4583 13.9237 13.4583 14.7532 12.6282C15.5834 11.7987 15.5834 10.4628 15.5834 7.79167C15.5834 5.12054 15.5834 3.78462 14.7532 2.95517C13.9237 2.125 12.5878 2.125 9.91669 2.125H7.08335C4.41223 2.125 3.07631 2.125 2.24685 2.95517C1.41669 3.78462 1.41669 5.12054 1.41669 7.79167C1.41669 10.4628 1.41669 11.7987 2.24685 12.6282C2.7094 13.0914 3.32919 13.2961 4.25002 13.3861" stroke="#040415" stroke-width="1.41667" stroke-linecap="round" stroke-linejoin="round"/>
<path d="M7.08338 6.0095C7.43755 5.30825 7.79172 4.95834 8.50005 4.95834C9.38263 4.95834 9.91672 5.65888 9.91672 6.35942C9.91672 7.05996 9.56255 7.09113 8.50005 7.79167V8.5M8.50005 10.2708V10.625M9.91672 13.4583C9.04122 13.4583 8.07647 13.8125 7.19601 14.2694C5.78076 15.0039 5.07313 15.3715 4.72463 15.1371C4.37613 14.9033 4.44201 14.1773 4.57447 12.7259L4.60422 12.3958" stroke="#040415" stroke-width="1.41667" stroke-linecap="round"/>
</svg>
