<svg width="17" height="17" viewBox="0 0 17 17" fill="none" xmlns="http://www.w3.org/2000/svg">
<path d="M11.669 3.83067L13.1693 5.33021M12.6338 2.50963L8.57717 6.56625C8.36756 6.77556 8.22461 7.04224 8.16633 7.33267L7.79163 9.20833L9.66729 8.83292C9.95771 8.77483 10.224 8.63246 10.4337 8.42279L14.4903 4.36617C14.6122 4.24426 14.7089 4.09955 14.7749 3.94027C14.8409 3.781 14.8748 3.61029 14.8748 3.4379C14.8748 3.2655 14.8409 3.09479 14.7749 2.93552C14.7089 2.77625 14.6122 2.63153 14.4903 2.50963C14.3684 2.38772 14.2237 2.29102 14.0644 2.22505C13.9052 2.15908 13.7345 2.12512 13.5621 2.12512C13.3897 2.12512 13.219 2.15908 13.0597 2.22505C12.9004 2.29102 12.7557 2.38772 12.6338 2.50963Z" stroke="#040415" stroke-width="1.41667" stroke-linecap="round" stroke-linejoin="round"/>
<path d="M13.4583 10.625V12.75C13.4583 13.1257 13.3091 13.4861 13.0434 13.7517C12.7777 14.0174 12.4174 14.1667 12.0416 14.1667H4.24998C3.87426 14.1667 3.51392 14.0174 3.24824 13.7517C2.98257 13.4861 2.83331 13.1257 2.83331 12.75V4.95833C2.83331 4.58261 2.98257 4.22228 3.24824 3.9566C3.51392 3.69092 3.87426 3.54167 4.24998 3.54167H6.37498" stroke="#040415" stroke-width="1.41667" stroke-linecap="round" stroke-linejoin="round"/>
</svg>
