<svg width="17" height="17" viewBox="0 0 17 17" fill="none" xmlns="http://www.w3.org/2000/svg">
<path d="M6.37496 8.5H10.625M10.625 4.25H11.3333C12.4605 4.25 13.5415 4.69777 14.3385 5.4948C15.1355 6.29183 15.5833 7.37283 15.5833 8.5C15.5833 9.62717 15.1355 10.7082 14.3385 11.5052C13.5415 12.3022 12.4605 12.75 11.3333 12.75H10.625M6.37496 12.75H5.66663C4.53946 12.75 3.45845 12.3022 2.66142 11.5052C1.86439 10.7082 1.41663 9.62717 1.41663 8.5C1.41663 7.37283 1.86439 6.29183 2.66142 5.4948C3.45845 4.69777 4.53946 4.25 5.66663 4.25H6.37496" stroke="#2EAAED" stroke-width="1.41667" stroke-linecap="round" stroke-linejoin="round"/>
</svg>
