<svg width="17" height="17" viewBox="0 0 17 17" fill="none" xmlns="http://www.w3.org/2000/svg">
<path d="M8.5 9.20833C9.6736 9.20833 10.625 8.25693 10.625 7.08333C10.625 5.90972 9.6736 4.95833 8.5 4.95833C7.32639 4.95833 6.375 5.90972 6.375 7.08333C6.375 8.25693 7.32639 9.20833 8.5 9.20833Z" stroke="#2EAAED" stroke-width="1.41667" stroke-linecap="round" stroke-linejoin="round"/>
<path d="M8.50004 1.41666C6.99715 1.41666 5.55581 2.01369 4.4931 3.07639C3.4304 4.1391 2.83337 5.58044 2.83337 7.08333C2.83337 8.4235 3.11812 9.30041 3.89587 10.2708L8.50004 15.5833L13.1042 10.2708C13.882 9.30041 14.1667 8.4235 14.1667 7.08333C14.1667 5.58044 13.5697 4.1391 12.507 3.07639C11.4443 2.01369 10.0029 1.41666 8.50004 1.41666Z" stroke="#2EAAED" stroke-width="1.41667" stroke-linecap="round" stroke-linejoin="round"/>
</svg>
