<svg width="16" height="16" viewBox="0 0 16 16" fill="none" xmlns="http://www.w3.org/2000/svg">
<path fill-rule="evenodd" clip-rule="evenodd" d="M1.83329 2.65713C1.83329 2.2035 2.20303 1.83334 2.65779 1.83334H6.99492C7.21292 1.83334 7.42305 1.9202 7.5778 2.07496L13.6333 8.1305L13.6334 8.1306C13.71 8.20717 13.7708 8.29808 13.8123 8.39813C13.8537 8.49819 13.8751 8.60543 13.8751 8.71373C13.8751 8.82204 13.8537 8.92928 13.8123 9.02934C13.7708 9.12939 13.71 9.2203 13.6334 9.29687L13.6333 9.29697L9.29693 13.6334L9.29682 13.6335C9.22025 13.7101 9.12934 13.7709 9.02929 13.8123C8.92924 13.8538 8.82199 13.8751 8.71369 13.8751C8.60538 13.8751 8.49814 13.8538 8.39809 13.8123C8.29803 13.7709 8.20712 13.7101 8.13056 13.6335L8.13045 13.6334L2.07491 7.57785L2.07485 7.57779C1.92025 7.42322 1.83336 7.21358 1.83329 6.99496V6.99485V2.65713ZM2.65779 0.416672C1.42105 0.416672 0.416626 1.42067 0.416626 2.65713V6.99496V6.99508C0.416724 7.58941 0.652889 8.15936 1.07318 8.57958L1.07323 8.57964L7.12861 14.635C7.33673 14.8432 7.58384 15.0084 7.85581 15.1211C8.12779 15.2338 8.4193 15.2918 8.71369 15.2918C9.00808 15.2918 9.29959 15.2338 9.57156 15.1211C9.84354 15.0084 10.0906 14.8432 10.2988 14.635L14.635 10.2988C14.8432 10.0907 15.0083 9.84358 15.121 9.57161C15.2337 9.29963 15.2917 9.00813 15.2917 8.71373C15.2917 8.41934 15.2337 8.12783 15.121 7.85586C15.0083 7.58389 14.8432 7.33678 14.635 7.12866L8.57953 1.07322C8.15912 0.652806 7.58866 0.416672 6.99492 0.416672H2.65779ZM4.10495 3.10331C3.82833 2.82669 3.37984 2.82669 3.10322 3.10331C2.8266 3.37993 2.8266 3.82842 3.10322 4.10504L3.45738 4.45921C3.73401 4.73583 4.1825 4.73583 4.45912 4.45921C4.73574 4.18259 4.73574 3.7341 4.45912 3.45748L4.10495 3.10331Z" fill="#2EAAED"/>
</svg>
